<?xml version="1.0" standalone="no"?>
<!DOCTYPE svg PUBLIC "-//W3C//DTD SVG 20010904//EN"
 "http://www.w3.org/TR/2001/REC-SVG-20010904/DTD/svg10.dtd">
<svg version="1.0" xmlns="http://www.w3.org/2000/svg"
 width="500.000000pt" height="500.000000pt" viewBox="0 0 500.000000 500.000000"
 preserveAspectRatio="xMidYMid meet">

<g transform="translate(0.000000,500.000000) scale(0.100000,-0.100000)"
fill="#000000" stroke="none">
<path d="M0 4371 l0 -629 38 -13 c37 -12 436 -167 757 -294 94 -37 183 -69
199 -71 16 -2 36 -10 44 -16 13 -10 14 -10 8 0 -4 7 -2 12 6 12 7 1 2 8 -12
16 l-25 15 30 -5 c25 -5 27 -4 10 5 -22 11 -69 116 -54 121 11 4 -4 63 -17 63
-5 0 -23 10 -39 22 -17 12 -58 36 -90 53 -33 18 -104 61 -157 96 -53 35 -99
64 -102 64 -4 0 -25 12 -49 28 -23 15 -85 50 -137 77 -72 38 -95 55 -95 70 0
34 36 28 120 -21 44 -26 98 -56 120 -67 22 -11 67 -39 100 -61 72 -50 356
-206 370 -203 6 1 8 6 7 12 -2 5 0 6 5 2 4 -5 8 -13 8 -18 0 -5 3 -9 8 -9 4 0
9 0 12 0 2 0 0 11 -5 25 -6 15 -6 26 1 30 5 4 7 10 5 14 -11 18 -14 61 -4 55
6 -4 8 -1 6 7 -3 8 -11 13 -17 11 -7 -1 -10 2 -7 7 3 5 -25 40 -64 77 -69 66
-85 99 -54 111 17 6 25 1 136 -96 108 -94 118 -102 119 -93 0 4 4 -3 9 -15 5
-13 13 -23 17 -23 23 0 51 145 29 154 -7 3 -6 5 2 5 10 1 10 6 1 24 -11 20
-11 21 4 8 10 -8 17 -9 17 -3 0 6 -5 14 -11 18 -8 4 -7 9 2 15 11 6 10 9 -4
15 -9 3 -17 10 -17 15 0 21 -228 306 -616 770 -66 79 -138 168 -159 197 l-39
52 -208 0 -208 0 0 -629z m273 180 c42 -43 77 -84 77 -90 0 -6 15 -17 33 -25
45 -20 151 -130 144 -150 -13 -33 -46 -15 -125 69 -43 47 -83 85 -88 85 -5 0
-45 33 -89 74 -78 74 -79 75 -61 95 11 12 22 21 26 21 4 0 41 -35 83 -79z
m347 -320 c0 -16 105 -115 123 -116 24 -2 107 -85 107 -106 0 -26 -18 -33 -43
-16 -39 25 -87 80 -87 99 0 10 -7 18 -16 18 -8 0 -29 14 -46 30 -16 17 -33 30
-38 30 -5 0 -22 12 -39 26 -29 24 -39 52 -25 67 8 8 64 -20 64 -32z m-342
-214 c2 -11 -3 -17 -17 -17 -23 0 -35 15 -26 31 10 15 39 6 43 -14z"/>
<path d="M4415 4878 c-55 -67 -145 -177 -200 -243 -225 -270 -562 -689 -586
-729 -15 -25 -16 -31 -3 -43 8 -8 19 -34 25 -59 6 -24 15 -44 20 -44 5 0 9 -8
9 -17 0 -15 2 -16 10 -3 9 13 10 13 11 0 1 -8 1 -19 0 -24 -1 -4 22 13 51 39
193 171 258 225 271 225 8 0 18 -8 22 -17 4 -13 -6 -29 -38 -58 -24 -22 -95
-87 -156 -144 l-113 -104 32 -13 c17 -8 29 -18 25 -24 -4 -6 1 -7 11 -3 12 4
15 3 10 -5 -4 -7 -1 -15 7 -18 13 -4 268 142 437 251 36 23 120 72 188 109
119 66 124 68 143 51 23 -21 14 -37 -34 -56 -44 -18 -262 -143 -372 -214 -49
-32 -106 -68 -125 -80 -19 -13 -67 -41 -105 -63 -105 -60 -119 -74 -120 -115
0 -19 3 -33 7 -31 4 3 12 -13 17 -34 22 -79 19 -78 181 -16 355 136 934 365
942 373 4 3 9 282 10 619 l3 612 -240 0 -240 0 -100 -122z m343 -280 c22 -22
13 -35 -60 -95 -39 -32 -113 -98 -164 -147 -51 -48 -97 -85 -103 -81 -6 3 -11
17 -11 30 0 17 25 46 92 107 51 46 120 109 153 140 63 60 73 66 93 46z m-428
-383 c7 -8 10 -21 7 -28 -6 -17 -73 -58 -81 -50 -15 15 -4 53 20 72 32 25 38
26 54 6z m-147 -134 c3 -13 -8 -32 -36 -61 -38 -38 -42 -40 -54 -24 -19 26
-17 32 21 70 38 38 61 43 69 15z m501 -44 c8 -12 7 -20 -2 -29 -16 -16 -47 13
-38 37 7 19 25 16 40 -8z"/>
<path d="M3390 4112 c0 -135 3 -171 14 -175 7 -3 17 -2 22 3 5 5 8 82 8 172
-2 158 -2 163 -23 166 -21 3 -21 1 -21 -166z"/>
<path d="M1500 4116 c0 -86 0 -159 0 -163 0 -5 8 -8 18 -8 15 0 17 14 17 160
0 144 -2 160 -17 163 -17 3 -18 -9 -18 -152z"/>
<path d="M1345 4119 c-9 -13 36 -99 52 -99 23 0 22 18 -3 64 -26 47 -37 55
-49 35z"/>
<path d="M3527 4087 c-24 -37 -34 -67 -23 -67 2 0 11 -3 20 -6 9 -4 16 -1 16
6 0 7 11 28 25 46 30 39 30 41 7 53 -15 8 -23 3 -45 -32z"/>
<path d="M1645 4010 c-17 -24 -25 -46 -21 -57 6 -14 9 -15 20 -2 11 12 39 99
31 99 -1 0 -15 -18 -30 -40z"/>
<path d="M3240 4020 c0 -6 7 -26 14 -45 10 -24 22 -35 35 -35 27 0 27 24 0 61
-20 28 -49 39 -49 19z"/>
<path d="M2638 3839 c-6 -4 -11 -26 -11 -48 0 -36 -5 -46 -32 -67 -54 -41 -65
-84 -65 -254 l0 -150 45 -11 c60 -15 151 -75 198 -129 59 -70 80 -137 75 -250
-4 -79 -9 -104 -32 -149 -51 -98 -153 -180 -251 -201 l-30 -6 -3 -546 -2 -546
232 -7 c155 -4 249 -3 280 4 46 11 65 9 183 -20 39 -9 89 -9 232 0 100 7 190
14 200 15 17 3 18 33 21 569 2 555 3 566 22 572 14 4 20 15 20 34 0 16 3 42 6
59 5 27 3 33 -20 43 -20 10 -26 19 -26 46 0 22 5 33 14 33 19 0 24 9 32 58 6
38 4 42 -20 53 -31 14 -34 29 -6 29 18 0 20 7 20 65 0 58 -2 65 -20 65 -18 0
-20 7 -20 60 0 41 -4 60 -12 60 -7 0 -58 -20 -113 -43 -55 -24 -121 -49 -147
-56 -45 -13 -51 -12 -102 12 -63 30 -101 67 -126 122 -37 81 -35 163 5 251 20
44 86 101 133 115 28 8 55 29 91 70 28 32 51 60 51 64 0 3 -114 5 -252 5
l-253 -1 -3 33 c-6 56 -11 57 -164 55 -77 -1 -145 -5 -150 -8z m176 -371 c20
-28 20 -43 0 -62 -20 -21 -53 -20 -76 1 -22 20 -23 41 -1 65 22 25 59 23 77
-4z m346 -1623 c34 -18 60 -62 60 -102 0 -42 -43 -99 -85 -113 -77 -25 -140
27 -140 116 0 38 5 58 20 74 37 41 94 51 145 25z"/>
<path d="M3052 1787 c-27 -29 -28 -47 -1 -81 41 -52 119 -25 119 42 0 58 -76
83 -118 39z"/>
<path d="M1501 3699 c29 -34 58 -62 63 -64 71 -19 116 -44 158 -88 l48 -50 0
-101 c0 -119 -16 -162 -77 -218 -29 -25 -58 -40 -97 -49 -52 -11 -61 -10 -138
15 -46 15 -109 40 -140 57 -31 16 -59 29 -62 29 -4 0 -6 -27 -6 -59 0 -54 -2
-60 -22 -63 -22 -3 -23 -7 -26 -134 l-3 -132 26 -6 c22 -6 26 -11 23 -39 -2
-25 -8 -33 -26 -35 -22 -3 -23 -7 -20 -70 3 -61 5 -67 26 -70 l22 -3 0 -638 0
-637 26 -53 c46 -93 34 -91 553 -91 l444 0 45 26 c33 19 50 39 68 77 l24 52 0
606 c0 657 3 619 -51 619 -33 0 -108 41 -159 87 -31 28 -61 69 -82 111 -31 62
-33 74 -33 167 0 88 3 107 27 158 30 63 109 147 166 176 21 10 58 24 85 31
l47 13 0 152 c0 139 -2 156 -23 196 -16 31 -36 51 -67 67 -44 22 -49 22 -458
22 l-414 0 53 -61z m502 -31 c14 -21 -7 -48 -38 -48 -28 0 -39 24 -24 51 12
24 47 22 62 -3z m-294 -6 c7 -13 6 -23 -1 -30 -17 -17 -32 -15 -51 6 -13 14
-14 21 -5 30 18 18 46 15 57 -6z m161 -1872 c27 -15 36 -74 16 -105 -12 -19
-25 -25 -51 -25 -69 0 -98 68 -50 115 26 27 54 31 85 15z m-324 -391 c20 -22
13 -43 -19 -63 -36 -23 -75 36 -47 70 17 20 44 17 66 -7z m318 -1 c20 -28 20
-33 0 -52 -41 -41 -101 2 -69 50 19 30 49 31 69 2z m326 8 c28 -34 -11 -93
-47 -70 -32 20 -39 41 -19 63 22 24 49 27 66 7z"/>
<path d="M1414 3558 c-73 -52 -107 -154 -79 -239 29 -88 94 -129 201 -129 117
0 195 112 170 245 -8 40 -64 108 -107 131 -45 23 -148 18 -185 -8z m183 -70
c44 -46 61 -111 40 -160 -42 -101 -193 -104 -240 -5 -47 99 14 197 124 197 38
0 50 -5 76 -32z"/>
<path d="M3330 3565 c-46 -26 -97 -82 -103 -115 -17 -84 -4 -155 36 -198 66
-71 192 -83 264 -26 43 34 93 123 93 166 0 65 -46 135 -112 169 -44 22 -140
24 -178 4z m150 -62 c36 -21 70 -81 70 -124 0 -81 -90 -150 -168 -130 -62 17
-102 74 -102 144 0 93 119 158 200 110z"/>
<path d="M1010 3550 c0 -5 5 -10 11 -10 5 0 7 5 4 10 -3 6 -8 10 -11 10 -2 0
-4 -4 -4 -10z"/>
<path d="M4004 3248 c-12 -19 11 -25 161 -48 83 -13 162 -25 176 -27 18 -3 28
0 33 12 10 27 0 33 -66 40 -35 3 -97 10 -138 15 -142 17 -160 18 -166 8z"/>
<path d="M745 3229 c-71 -10 -147 -18 -167 -18 -25 -1 -38 -6 -38 -15 0 -33
25 -33 205 -5 99 15 181 28 183 28 1 1 2 8 2 16 0 18 -13 18 -185 -6z"/>
<path d="M405 3201 c-17 -3 -31 -14 -33 -24 -3 -14 4 -17 35 -17 46 0 68 13
60 34 -7 17 -13 18 -62 7z"/>
<path d="M4430 3196 c0 -16 13 -21 83 -31 47 -6 48 -6 45 17 -3 21 -9 23 -65
26 -50 2 -63 0 -63 -12z"/>
<path d="M819 3026 c-75 -34 -155 -69 -178 -79 -22 -10 -41 -23 -41 -28 0 -25
39 -16 171 41 79 34 156 67 172 73 25 11 37 40 20 50 -5 2 -69 -23 -144 -57z"/>
<path d="M3985 3069 c-8 -24 -11 -21 40 -38 36 -13 89 -36 243 -108 53 -25 82
-25 82 0 0 13 -117 73 -201 102 -19 7 -59 25 -87 39 -62 31 -69 32 -77 5z"/>
<path d="M2550 3059 c-39 -16 -60 -40 -60 -68 0 -41 25 -67 75 -80 39 -10 46
-15 43 -34 -4 -27 -49 -35 -81 -14 -20 13 -24 12 -40 -9 -18 -24 -18 -24 10
-35 50 -19 81 -21 117 -9 41 13 56 35 56 79 0 34 -20 51 -82 71 -40 12 -48 29
-23 50 12 10 21 10 41 1 20 -9 30 -9 40 0 24 20 15 38 -23 48 -44 13 -41 13
-73 0z"/>
<path d="M2230 3053 c0 -5 19 -63 42 -130 43 -122 43 -123 75 -123 30 0 32 3
48 58 9 31 27 84 41 117 15 33 28 66 31 73 4 8 -6 12 -29 12 l-33 0 -24 -85
c-13 -47 -27 -88 -32 -90 -4 -3 -13 14 -19 37 -31 121 -40 138 -71 138 -16 0
-29 -3 -29 -7z"/>
<path d="M2530 1382 l0 -33 573 3 572 3 3 30 3 30 -576 0 -575 0 0 -33z"/>
<path d="M2578 1312 c-45 -4 -46 -10 -12 -52 52 -61 40 -60 534 -60 502 0 499
0 544 66 14 21 26 41 26 44 0 5 -1028 7 -1092 2z m478 -55 c11 -11 -16 -15
-143 -21 -140 -7 -213 0 -213 20 0 11 34 13 175 11 96 -2 177 -6 181 -10z"/>
<path d="M1670 990 c-187 -5 -195 -6 -195 -25 0 -20 8 -20 341 -23 299 -2 343
0 354 13 8 10 9 19 4 25 -12 11 -260 16 -504 10z"/>
<path d="M2260 985 c-15 -18 -6 -45 14 -45 45 0 61 31 27 50 -25 13 -26 13
-41 -5z"/>
<path d="M2747 993 c-15 -15 -6 -43 16 -48 12 -3 170 -4 352 -3 314 3 330 4
333 22 2 10 -2 22 -10 27 -15 10 -681 12 -691 2z"/>
<path d="M1314 975 c-9 -22 9 -37 37 -33 16 2 24 10 24 23 0 26 -52 35 -61 10z"/>
<path d="M2608 978 c-8 -21 2 -38 22 -38 23 0 32 13 24 34 -7 19 -40 21 -46 4z"/>
<path d="M3530 964 c0 -21 4 -25 23 -22 14 2 23 11 25 26 3 18 -1 22 -22 22
-21 0 -26 -5 -26 -26z"/>
</g>
</svg>
